<svg id="visual" viewBox="0 0 900 600" width="900" height="600" xmlns="http://www.w3.org/2000/svg" xmlns:xlink="http://www.w3.org/1999/xlink" version="1.1"><rect x="0" y="0" width="900" height="600" fill="#051725"></rect><path d="M0 470L21.5 472.3C43 474.7 86 479.3 128.8 484.3C171.7 489.3 214.3 494.7 257.2 491.2C300 487.7 343 475.3 385.8 473.7C428.7 472 471.3 481 514.2 483C557 485 600 480 642.8 476C685.7 472 728.3 469 771.2 471.2C814 473.3 857 480.7 878.5 484.3L900 488L900 601L878.5 601C857 601 814 601 771.2 601C728.3 601 685.7 601 642.8 601C600 601 557 601 514.2 601C471.3 601 428.7 601 385.8 601C343 601 300 601 257.2 601C214.3 601 171.7 601 128.8 601C86 601 43 601 21.5 601L0 601Z" fill="#fa7268"></path><path d="M0 489L21.5 488.8C43 488.7 86 488.3 128.8 492.3C171.7 496.3 214.3 504.7 257.2 510C300 515.3 343 517.7 385.8 519C428.7 520.3 471.3 520.7 514.2 519.5C557 518.3 600 515.7 642.8 511.2C685.7 506.7 728.3 500.3 771.2 501.5C814 502.7 857 511.3 878.5 515.7L900 520L900 601L878.5 601C857 601 814 601 771.2 601C728.3 601 685.7 601 642.8 601C600 601 557 601 514.2 601C471.3 601 428.7 601 385.8 601C343 601 300 601 257.2 601C214.3 601 171.7 601 128.8 601C86 601 43 601 21.5 601L0 601Z" fill="#ef5f67"></path><path d="M0 531L21.5 528.7C43 526.3 86 521.7 128.8 524C171.7 526.3 214.3 535.7 257.2 533.7C300 531.7 343 518.3 385.8 515.5C428.7 512.7 471.3 520.3 514.2 523.2C557 526 600 524 642.8 522.5C685.7 521 728.3 520 771.2 517.7C814 515.3 857 511.7 878.5 509.8L900 508L900 601L878.5 601C857 601 814 601 771.2 601C728.3 601 685.7 601 642.8 601C600 601 557 601 514.2 601C471.3 601 428.7 601 385.8 601C343 601 300 601 257.2 601C214.3 601 171.7 601 128.8 601C86 601 43 601 21.5 601L0 601Z" fill="#e34c67"></path><path d="M0 538L21.5 537.5C43 537 86 536 128.8 535.7C171.7 535.3 214.3 535.7 257.2 540.5C300 545.3 343 554.7 385.8 557C428.7 559.3 471.3 554.7 514.2 549.5C557 544.3 600 538.7 642.8 535.7C685.7 532.7 728.3 532.3 771.2 535.7C814 539 857 546 878.5 549.5L900 553L900 601L878.5 601C857 601 814 601 771.2 601C728.3 601 685.7 601 642.8 601C600 601 557 601 514.2 601C471.3 601 428.7 601 385.8 601C343 601 300 601 257.2 601C214.3 601 171.7 601 128.8 601C86 601 43 601 21.5 601L0 601Z" fill="#d53867"></path><path d="M0 582L21.5 578.7C43 575.3 86 568.7 128.8 568.7C171.7 568.7 214.3 575.3 257.2 575.8C300 576.3 343 570.7 385.8 569.5C428.7 568.3 471.3 571.7 514.2 570.2C557 568.7 600 562.3 642.8 563.2C685.7 564 728.3 572 771.2 574.7C814 577.3 857 574.7 878.5 573.3L900 572L900 601L878.5 601C857 601 814 601 771.2 601C728.3 601 685.7 601 642.8 601C600 601 557 601 514.2 601C471.3 601 428.7 601 385.8 601C343 601 300 601 257.2 601C214.3 601 171.7 601 128.8 601C86 601 43 601 21.5 601L0 601Z" fill="#c62368"></path></svg>